<svg xmlns="http://www.w3.org/2000/svg" width="330" height="174" viewBox="0 0 330 174"><rect width="330" height="174" rx="15" fill="#ffd21a"/><circle cx="285" cy="32" r="20" fill="#159cf2"/><circle cx="310" cy="58" r="9" fill="#5a2b12"/><text x="18" y="24" font-family="Arial,sans-serif" font-size="9" font-weight="700" fill="#5a2b12">SOCIAL CAMPAIGN</text><rect x="18" y="36" width="205" height="38" rx="8" fill="#159cf2"/><text x="28" y="62" font-family="Arial,sans-serif" font-size="28" font-weight="800" fill="white">Social Media</text><rect x="18" y="80" width="160" height="36" rx="8" fill="#5a2b12"/><text x="29" y="105" font-family="Arial,sans-serif" font-size="27" font-weight="800" fill="#ffd21a">Campaign</text><text x="20" y="137" font-family="Arial,sans-serif" font-size="10" font-weight="600" fill="#5a2b12">GROW • ENGAGE • CONNECT</text><path d="M245 96c0-20 12-32 28-32s27 12 27 32" fill="#159cf2"/><circle cx="273" cy="57" r="20" fill="#ffd21a" stroke="#5a2b12" stroke-width="3"/><circle cx="266" cy="55" r="3" fill="#5a2b12"/><circle cx="280" cy="55" r="3" fill="#5a2b12"/><path d="M267 65q7 7 14 0" fill="none" stroke="#5a2b12" stroke-width="3" stroke-linecap="round"/><rect x="252" y="92" width="42" height="61" rx="7" fill="#5a2b12"/><rect x="257" y="98" width="32" height="44" rx="3" fill="#fffdf7"/><circle cx="273" cy="147" r="3" fill="#ffd21a"/><text x="258" y="110" font-family="Arial" font-size="8" font-weight="700" fill="#159cf2">LIKE</text><text x="258" y="122" font-family="Arial" font-size="8" font-weight="700" fill="#5a2b12">SHARE</text><text x="258" y="134" font-family="Arial" font-size="8" font-weight="700" fill="#159cf2">GROW</text></svg>